<?xml version="1.0" standalone="no"?>
<!DOCTYPE svg PUBLIC "-//W3C//DTD SVG 20010904//EN"
 "http://www.w3.org/TR/2001/REC-SVG-20010904/DTD/svg10.dtd">
<svg version="1.0" xmlns="http://www.w3.org/2000/svg"
 width="700.000000pt" height="700.000000pt" viewBox="0 0 700.000000 700.000000"
 preserveAspectRatio="xMidYMid meet">
<metadata>
Created by potrace 1.14, written by Peter Selinger 2001-2017
</metadata>
<g transform="translate(0.000000,700.000000) scale(0.100000,-0.100000)"
fill="#000000" stroke="none">
<path d="M3817 6004 c-1 -1 -36 -4 -77 -5 -41 -1 -109 -10 -150 -18 -88 -19
-178 -20 -274 -1 -91 17 -363 4 -501 -24 -62 -13 -92 -13 -362 -2 -141 6 -165
5 -187 -9 -14 -9 -29 -14 -35 -11 -35 22 -325 26 -399 5 -40 -11 -46 -11 -58
5 -11 15 -23 17 -96 11 -46 -4 -85 -8 -88 -10 -3 -2 -29 -6 -57 -10 -63 -8
-93 -16 -153 -43 -25 -11 -70 -23 -100 -27 -44 -5 -62 -13 -89 -39 -29 -30
-32 -36 -21 -56 10 -18 9 -25 -8 -43 -11 -12 -34 -63 -51 -114 -17 -51 -40
-102 -51 -113 -11 -11 -21 -30 -21 -42 -5 -75 -5 -97 2 -138 28 -178 29 -213
7 -315 -17 -78 -19 -117 -14 -290 3 -110 8 -213 12 -230 3 -16 7 -150 8 -297
2 -148 5 -270 8 -273 3 -3 0 -29 -7 -59 -14 -58 -12 -116 4 -159 15 -39 14
-68 -4 -104 -13 -27 -13 -35 0 -74 13 -34 15 -68 10 -154 -5 -98 -20 -245 -31
-315 -5 -32 -4 -230 1 -290 2 -25 7 -74 11 -110 4 -36 8 -175 10 -310 1 -135
5 -261 8 -280 20 -131 24 -195 13 -240 -33 -140 -32 -178 3 -255 15 -34 24
-73 25 -123 3 -63 7 -76 28 -95 27 -24 77 -101 122 -190 17 -32 38 -65 47 -74
41 -37 214 -60 508 -68 69 -2 145 -6 170 -10 25 -5 63 -7 85 -6 22 1 172 3
332 4 161 2 295 6 299 9 3 4 23 0 45 -7 40 -15 152 -14 199 1 33 11 336 11
425 1 73 -9 178 -10 230 -2 124 18 386 22 650 10 228 -10 438 -10 720 0 116 3
298 8 405 10 187 2 201 4 333 38 75 20 142 39 147 42 18 11 40 64 46 108 3 23
8 49 10 57 3 8 7 71 10 140 5 165 14 339 20 370 2 14 7 126 9 250 3 124 8 311
11 415 3 105 4 237 3 295 -5 227 -2 631 5 750 5 69 8 150 8 180 -6 531 -9 657
-14 665 -12 20 -22 143 -22 260 0 148 13 355 24 375 13 26 4 77 -21 112 -26
35 -25 25 -18 268 1 52 -1 130 -6 173 -5 52 -4 77 3 77 20 0 -52 120 -104 175
-67 70 -122 97 -202 101 -46 3 -84 13 -142 39 -56 25 -94 36 -127 36 -155 -1
-502 8 -523 13 -14 4 -104 9 -200 11 -96 3 -207 10 -245 16 -39 6 -86 8 -105
5 -84 -15 -231 -18 -280 -6 -45 11 -166 21 -173 14z m-169 -267 c12 -14 25
-70 72 -312 27 -136 31 -170 24 -230 -13 -113 -9 -226 9 -268 l16 -37 61 42
c34 23 65 49 70 57 10 19 21 159 25 301 2 111 38 337 55 354 24 24 45 -11 71
-120 15 -60 25 -118 22 -129 -17 -81 -15 -122 11 -184 14 -36 26 -84 26 -107
0 -36 6 -48 41 -84 84 -85 158 -123 172 -87 2 6 3 118 1 247 -2 174 1 249 11
290 8 30 17 79 21 108 8 64 30 95 68 95 53 0 60 -20 62 -161 1 -70 5 -154 10
-187 16 -111 11 -284 -10 -344 -10 -30 -20 -80 -21 -110 -2 -61 -14 -91 -54
-134 -38 -42 -72 -57 -143 -62 -147 -12 -166 -17 -173 -49 -9 -35 18 -107 48
-130 22 -16 40 -20 95 -18 86 3 93 -4 138 -140 19 -57 39 -112 43 -123 5 -11
12 -29 16 -40 7 -17 11 -177 18 -645 2 -84 -3 -142 -23 -264 -8 -53 -7 -70 6
-102 11 -26 16 -65 16 -119 -2 -121 -13 -155 -60 -179 -84 -42 -126 41 -115
234 7 120 6 205 -2 400 -4 85 -8 265 -9 400 -2 221 -4 248 -20 273 -36 53 -96
65 -132 26 -15 -16 -18 -43 -20 -182 -1 -89 -5 -187 -9 -217 -6 -46 -9 -172
-15 -650 0 -14 0 -45 0 -70 0 -53 -18 -157 -31 -182 -11 -20 -86 -61 -98 -54
-4 3 -6 18 -4 33 3 21 -5 37 -32 65 -31 33 -34 40 -25 64 6 15 13 53 15 83 3
31 11 90 18 131 9 50 10 87 4 110 -5 19 -11 96 -13 170 -2 74 -4 153 -5 175
-3 38 8 146 18 190 2 11 6 81 9 156 4 135 4 137 -21 167 -24 28 -28 29 -100
28 -110 -2 -109 -1 -109 -194 0 -86 4 -220 8 -297 5 -117 4 -145 -9 -169 -16
-30 -16 -37 9 -176 7 -41 12 -91 10 -110 -1 -19 -5 -67 -9 -105 -3 -39 -8
-121 -10 -184 -3 -98 -6 -116 -24 -134 -20 -20 -111 -60 -119 -53 -2 3 -5 28
-7 58 -1 29 -8 78 -15 108 -16 75 -18 101 -9 128 16 43 17 98 2 142 -9 25 -17
81 -18 125 -2 44 -6 112 -10 150 -11 100 -9 143 10 205 12 39 16 88 15 170 -1
63 -2 144 -2 180 0 44 8 92 26 148 14 46 26 100 26 121 0 55 52 98 127 106 35
3 61 7 123 20 37 7 84 27 92 39 14 20 8 56 -16 104 -26 51 -55 71 -116 79 -19
3 -63 15 -98 26 l-63 22 -34 97 c-18 53 -32 98 -30 100 11 12 10 85 -2 120
-11 31 -13 63 -9 113 4 39 9 140 11 225 3 85 6 172 8 193 3 33 1 37 -20 37
-29 0 -29 8 2 67 37 69 77 92 103 60z m-1323 -53 c36 -10 182 -11 325 -1 121
9 301 10 345 2 17 -3 55 -10 85 -15 30 -6 79 -23 110 -39 l55 -29 2 -57 1 -57
-43 -19 c-35 -16 -56 -18 -117 -13 -168 15 -507 -1 -565 -27 -48 -22 -52 -30
-24 -58 46 -46 69 -50 280 -53 148 -1 220 -7 274 -19 40 -10 94 -20 120 -23
27 -3 52 -8 56 -11 5 -2 7 -33 6 -67 -3 -93 -3 -96 -23 -116 -16 -16 -30 -18
-93 -14 -113 7 -174 6 -294 -2 -198 -14 -241 -21 -300 -46 -36 -15 -47 -28
-73 -82 -35 -73 -43 -121 -30 -182 4 -22 11 -88 14 -146 8 -166 -7 -150 142
-151 125 -1 196 -4 278 -13 44 -5 107 -32 102 -44 -2 -4 -12 -31 -22 -59 -25
-66 -75 -98 -150 -94 -162 6 -374 -1 -395 -14 -16 -9 -86 -19 -116 -16 -60 7
-181 6 -217 -1 -140 -28 -315 -27 -370 3 -21 11 -33 51 -23 76 4 10 9 29 11
42 8 39 23 60 47 65 12 3 85 8 162 11 156 6 187 10 262 31 96 28 109 52 118
234 4 96 -7 179 -41 299 l-16 60 -52 12 c-35 9 -132 12 -311 11 -208 -1 -272
1 -323 14 -35 9 -68 17 -75 18 -65 12 -83 39 -62 90 20 47 44 60 146 80 79 15
114 15 222 1 16 -2 54 3 85 11 31 8 113 17 182 20 130 6 174 19 183 55 11 40
-14 51 -121 54 -56 2 -106 6 -111 10 -13 7 -95 13 -279 20 -84 3 -156 6 -160
7 -4 2 -32 -3 -63 -11 -73 -18 -112 -5 -183 60 -46 42 -53 53 -50 80 5 45 47
95 90 109 25 9 65 10 132 4 54 -4 149 -8 212 -7 112 0 422 13 428 18 7 6 201
-3 227 -11z m3185 0 c36 -9 79 -18 95 -21 48 -7 75 -30 75 -61 0 -16 6 -51 14
-78 8 -27 17 -72 21 -99 3 -28 8 -64 10 -80 4 -32 6 -225 2 -315 -3 -66 -8
-77 -47 -85 -25 -6 -30 -12 -31 -38 -1 -18 -1 -35 0 -39 2 -18 -48 -36 -104
-37 -78 -2 -144 -10 -176 -22 -45 -18 -77 -96 -58 -147 15 -39 64 -52 175 -46
l99 5 37 -38 c20 -21 51 -65 68 -97 31 -59 31 -60 11 -79 -15 -15 -31 -20 -63
-18 -81 5 -93 5 -171 -3 -49 -5 -93 -4 -119 2 -55 14 -75 3 -79 -45 -6 -55 0
-82 19 -92 9 -5 61 -12 115 -15 133 -8 196 -36 227 -104 12 -26 40 -66 62 -88
39 -41 40 -43 30 -88 -13 -62 -8 -340 7 -395 21 -73 -11 -340 -55 -456 -14
-38 -33 -90 -41 -115 -8 -25 -20 -55 -25 -67 -15 -31 -64 -80 -87 -86 -37 -9
-46 8 -47 93 -2 97 -16 130 -55 130 -23 0 -41 -16 -99 -85 -81 -97 -97 -108
-159 -108 -48 0 -71 19 -71 59 0 12 22 94 49 181 85 270 125 433 136 553 12
127 24 168 60 204 15 14 18 14 41 -1 35 -22 41 -38 49 -123 3 -41 13 -106 21
-145 8 -38 17 -88 20 -110 8 -64 9 -66 44 -54 16 6 33 15 36 20 13 21 16 148
5 182 -10 28 -9 46 3 89 23 82 25 223 2 253 -13 19 -26 20 -137 14 -41 -2 -65
3 -95 18 -21 12 -61 27 -88 33 -96 22 -117 52 -130 184 -8 83 -24 134 -44 145
-9 5 -35 8 -57 6 -124 -10 -227 0 -279 27 -24 13 -16 53 20 107 29 44 45 51
174 76 172 33 205 52 213 125 6 43 -6 75 -31 89 -10 5 -81 12 -157 16 -76 3
-144 10 -151 16 -7 6 -16 25 -19 42 -4 18 -15 41 -25 52 -24 26 -36 59 -50
137 -13 66 -15 178 -5 238 3 19 7 71 10 115 4 76 36 209 56 230 17 18 161 41
269 44 57 1 106 3 107 5 1 1 71 3 155 3 110 2 172 -2 218 -13z m-2569 -784
c73 -20 199 -89 212 -117 6 -13 28 -33 49 -44 44 -23 53 -37 62 -104 4 -27 10
-66 12 -85 3 -19 7 -42 10 -52 3 -9 -4 -33 -15 -55 -22 -43 -30 -135 -14 -173
15 -35 -9 -80 -42 -80 -54 0 -87 94 -90 255 -2 69 -7 103 -25 145 -13 30 -25
57 -27 60 -2 2 -56 5 -121 7 -71 2 -146 10 -192 21 -41 11 -96 18 -122 16 -43
-3 -48 -1 -52 19 -3 12 -7 34 -10 49 -8 38 2 57 40 73 18 7 40 27 48 43 9 17
21 32 28 34 24 8 208 -1 249 -12z m-1133 -102 c41 -12 76 -28 79 -35 8 -21
-45 -83 -70 -83 -13 0 -48 -9 -78 -20 -85 -29 -299 -24 -299 8 0 5 18 30 40
55 35 39 49 47 98 57 31 7 75 18 97 25 52 18 49 18 133 -7z m-324 -208 c48
-18 58 -48 47 -138 -6 -44 -17 -95 -25 -113 -8 -19 -19 -60 -26 -91 -10 -52
-14 -58 -46 -68 -47 -16 -128 5 -155 39 -28 35 -34 68 -15 86 9 9 23 42 32 73
18 62 71 164 104 200 23 24 45 27 84 12z m3462 -430 c38 0 41 -27 5 -62 -20
-19 -38 -53 -51 -94 -11 -35 -25 -74 -32 -87 -7 -12 -13 -29 -14 -37 -4 -49
-178 -250 -216 -250 -41 0 -84 32 -106 80 -25 55 -27 78 -10 117 18 40 96 122
138 143 19 11 60 43 90 72 98 94 142 129 157 124 8 -3 26 -6 39 -6z m-2759
-292 c68 -76 78 -479 15 -595 -7 -12 -25 -31 -42 -43 -45 -32 -170 -81 -215
-84 -22 -1 -58 -8 -79 -16 -30 -10 -51 -10 -90 -2 -28 6 -78 14 -111 17 -33 3
-96 13 -140 22 -66 15 -85 23 -115 53 -78 79 -109 279 -62 407 13 37 22 86 23
134 2 84 15 114 40 95 32 -23 78 -124 104 -226 32 -124 33 -130 34 -151 1 -24
56 -46 109 -45 l47 1 1 37 c1 20 9 44 18 53 9 10 14 25 11 35 -13 42 -12 59 7
101 14 32 18 60 16 101 -4 65 2 72 56 57 37 -10 45 -18 51 -47 1 -9 8 -37 15
-61 9 -35 9 -45 -2 -52 -10 -7 -10 -13 -2 -27 8 -12 9 -24 3 -34 -9 -16 7 -68
21 -68 3 0 16 -18 28 -39 13 -22 30 -42 40 -45 25 -8 90 -11 97 -5 8 8 8 43 0
149 -9 122 -8 171 5 218 12 45 19 55 45 70 30 17 49 14 72 -10z m311 -14 c44
-31 55 -69 48 -173 -6 -82 -4 -106 14 -164 17 -53 26 -70 46 -77 36 -14 120
-12 132 3 6 7 13 64 16 127 10 187 17 254 30 268 10 10 24 1 75 -50 l62 -63
-5 -60 c-3 -34 -8 -79 -11 -100 -11 -77 -12 -133 -5 -146 5 -7 23 -14 42 -15
18 -2 46 -8 62 -14 16 -6 43 -13 61 -16 49 -7 60 13 61 120 1 50 4 107 7 126
3 19 9 58 13 85 5 28 9 53 10 58 1 4 2 15 3 26 1 23 37 34 65 19 44 -24 51
-39 52 -117 1 -67 7 -133 20 -196 3 -11 7 -54 11 -95 l6 -76 -77 -58 c-42 -32
-76 -62 -76 -66 0 -14 -85 -50 -116 -50 -16 0 -49 -10 -74 -21 -40 -18 -57
-20 -150 -15 -120 7 -147 11 -164 25 -7 6 -37 9 -68 8 -48 -2 -60 2 -83 23
-54 51 -53 42 -68 560 -4 143 6 163 61 124z m2637 -27 c-21 -113 -71 -286 -89
-305 -16 -19 -21 -37 -21 -85 -1 -55 -7 -74 -53 -164 -29 -57 -54 -119 -57
-139 -3 -24 -18 -50 -44 -79 -21 -23 -44 -53 -51 -66 -27 -51 -124 -119 -179
-126 -70 -9 -113 26 -76 63 8 8 20 34 26 57 15 57 45 114 85 163 18 23 36 54
40 70 4 16 19 57 34 91 24 52 32 62 57 65 20 2 27 8 25 21 -4 22 74 219 139
350 l50 102 59 2 c55 1 58 0 55 -20z m-2000 -942 c98 -8 117 -15 188 -68 70
-52 86 -86 50 -106 -36 -18 -209 -69 -242 -70 -19 -1 -36 -3 -38 -5 -2 -2 -9
-29 -15 -60 -15 -70 -9 -76 77 -75 59 1 129 -18 172 -47 26 -17 63 -84 63
-115 0 -11 8 -33 18 -47 41 -59 45 -57 -141 -60 -211 -3 -206 0 -206 -117 0
-70 3 -87 21 -110 32 -41 76 -55 175 -55 100 0 133 -14 133 -56 0 -38 -15 -59
-67 -95 -51 -34 -98 -40 -189 -24 -29 5 -49 3 -69 -7 -21 -11 -38 -13 -68 -6
-21 5 -65 6 -96 2 -31 -4 -103 -9 -161 -11 -58 -2 -130 -5 -160 -7 -30 -2 -70
-4 -87 -5 -30 -1 -33 -4 -33 -30 0 -17 10 -42 23 -57 23 -26 23 -26 182 -29
143 -3 182 -5 275 -20 115 -18 162 -25 210 -30 113 -12 131 -15 150 -25 45
-24 64 -86 37 -121 -15 -20 -86 -36 -147 -33 -25 1 -74 -3 -110 -8 -36 -6
-155 -11 -265 -13 -188 -2 -319 -11 -338 -22 -5 -3 -6 -11 -3 -18 6 -17 -49
-102 -80 -122 -13 -8 -43 -15 -66 -15 -48 1 -64 15 -103 92 -36 71 -87 88
-288 96 -72 3 -150 9 -172 14 -22 5 -69 7 -105 4 -149 -11 -271 -8 -281 7 -31
50 11 93 123 126 131 39 152 43 224 39 38 -3 96 2 129 9 81 18 135 24 227 24
66 1 80 4 98 23 20 22 27 72 12 95 -10 16 -37 18 -132 8 -129 -12 -140 -12
-196 1 -31 7 -73 11 -95 9 -21 -2 -39 1 -39 6 0 5 -5 9 -11 9 -5 0 -7 -5 -3
-12 11 -18 -150 -2 -181 18 -19 13 -46 17 -103 16 l-76 -1 -44 45 c-46 48 -46
65 1 80 12 4 33 15 47 25 30 22 49 24 153 15 77 -7 78 -6 107 23 37 36 39 79
7 165 -28 77 -61 98 -156 100 -72 1 -104 15 -153 68 -36 38 -35 53 6 94 32 32
38 34 102 35 133 1 204 17 233 53 18 21 16 115 -2 133 -9 9 -47 19 -96 23 -56
6 -89 15 -106 28 -14 11 -33 18 -43 16 -9 -3 -25 1 -36 9 -18 13 -17 15 15 52
32 36 93 71 142 81 68 13 220 19 667 28 185 4 287 11 366 25 39 7 137 6 309
-3 40 -2 85 2 105 9 19 7 49 11 65 9 17 -2 57 -6 90 -9z m694 -279 c8 -6 24
-32 36 -58 27 -58 27 -125 0 -250 -16 -72 -17 -89 -6 -102 19 -23 45 -20 80 9
16 14 81 52 143 83 62 32 172 97 243 145 72 48 141 87 153 87 17 0 24 -10 35
-47 18 -62 7 -104 -46 -175 -36 -48 -58 -64 -151 -113 -60 -31 -128 -64 -150
-72 -69 -24 -218 -61 -268 -67 -79 -8 -99 -26 -117 -107 -13 -59 6 -105 53
-124 47 -20 68 -19 99 5 15 12 84 37 154 56 70 19 191 55 268 81 94 31 149 44
166 40 14 -4 40 -27 58 -52 l32 -45 -28 -51 c-18 -34 -38 -56 -58 -64 -24 -10
-132 -38 -200 -51 -5 -1 -47 -9 -93 -18 -45 -10 -95 -19 -110 -22 -28 -5 -219
-41 -261 -49 -41 -8 -55 -30 -54 -86 2 -76 18 -107 62 -119 89 -25 269 2 328
48 35 27 69 48 179 107 36 20 44 21 71 10 43 -18 78 -71 74 -112 0 -6 -40 -45
-88 -87 -84 -73 -90 -76 -138 -76 -31 0 -62 -7 -80 -18 -26 -16 -60 -20 -215
-25 -210 -6 -228 -2 -253 61 -15 38 -31 49 -94 67 -22 6 -30 21 -39 72 -3 16
-10 46 -16 68 -11 42 -18 454 -8 547 3 29 1 74 -4 100 -8 40 -7 54 12 95 26
56 29 69 43 183 14 120 19 130 71 130 24 0 49 4 57 9 15 10 37 5 60 -13z
m1274 -1 c24 -10 80 -18 150 -21 194 -9 249 -29 348 -127 53 -53 75 -104 83
-191 4 -38 9 -73 12 -78 11 -18 15 -286 4 -293 -24 -15 -99 -13 -166 5 -39 10
-111 22 -160 26 -287 26 -456 -35 -471 -169 -5 -46 17 -106 40 -108 6 -1 93
-3 192 -4 276 -3 377 -15 458 -57 97 -49 130 -125 76 -174 -27 -24 -108 -21
-304 13 -95 16 -136 18 -275 12 -47 -2 -104 -1 -126 2 -26 4 -62 0 -97 -11
-49 -15 -59 -16 -85 -3 -56 27 -86 162 -62 278 7 33 12 80 11 103 -1 32 7 63
33 115 19 40 38 84 41 99 9 37 37 59 81 65 21 3 54 16 73 28 20 13 59 29 86
36 68 16 85 26 85 51 0 21 -96 159 -108 156 -40 -9 -253 51 -303 85 -27 18
-34 30 -35 57 -1 77 5 81 202 109 144 20 162 19 217 -4z m-335 -223 c4 -13
-42 -27 -58 -17 -8 5 -8 11 1 21 13 15 51 13 57 -4z"/>
<path d="M4885 5490 c-38 -14 -43 -32 -48 -189 -4 -133 -2 -161 13 -195 31
-72 49 -81 157 -79 140 2 184 41 101 88 -52 30 -150 125 -144 141 7 18 75 62
106 68 14 2 41 11 60 19 19 8 55 14 80 13 55 -2 186 -51 195 -73 7 -19 -29
-52 -90 -83 -50 -24 -104 -104 -88 -129 6 -9 20 -15 34 -13 70 9 99 8 152 -5
105 -24 176 -18 178 15 1 9 1 31 0 47 -1 17 -3 84 -4 150 -3 129 -19 181 -62
190 -84 19 -210 30 -305 26 -47 -2 -101 -4 -120 -4 -36 -1 -181 13 -190 18 -3
1 -14 -1 -25 -5z"/>
<path d="M1944 2642 c-21 -15 -44 -57 -44 -83 0 -24 9 -30 105 -68 58 -22 112
-41 120 -41 11 0 13 -8 8 -32 -3 -18 -10 -41 -14 -50 -5 -9 -9 -32 -9 -51 0
-42 -12 -53 -75 -67 -28 -6 -57 -13 -67 -16 -9 -2 -29 -30 -45 -62 -26 -52
-28 -61 -18 -104 16 -75 30 -83 143 -84 124 0 160 9 176 46 16 40 13 429 -5
461 -19 36 -39 53 -123 108 -76 49 -123 63 -152 43z"/>
<path d="M2619 2637 c-2 -3 -26 -7 -52 -10 -55 -7 -64 -13 -109 -70 -40 -50
-47 -120 -15 -154 11 -13 28 -23 38 -23 21 0 41 24 37 45 -2 10 9 26 24 38 23
17 31 18 56 8 26 -11 37 -10 76 8 25 11 47 26 47 33 1 7 3 23 4 36 4 36 -35
85 -71 89 -16 2 -32 2 -35 0z"/>
<path d="M2433 2355 c-5 -15 0 -134 13 -265 7 -82 31 -100 137 -101 45 0 133
-2 195 -4 61 -2 112 -1 112 1 0 2 -11 21 -24 42 -14 20 -32 66 -41 101 -31
123 -64 162 -135 163 -39 0 -174 39 -221 63 -27 14 -30 14 -36 0z"/>
<path d="M5368 2351 c-19 -9 -55 -47 -85 -90 -82 -113 -71 -144 50 -144 85 1
129 19 157 66 26 42 15 104 -27 153 -25 30 -56 35 -95 15z"/>
</g>
</svg>
